<mxfile host="app.diagrams.net" modified="2023-01-10T19:23:40.403Z" agent="5.0 (X11; Linux x86_64) AppleWebKit/537.36 (KHTML, like Gecko) Chrome/108.0.0.0 Safari/537.36" version="20.7.4" etag="CnskvCT0a7nWsY3YsXiu" type="github">
  <diagram id="PELnM6I8zMOkpGncSnQj" name="Pagina-1">
    <mxGraphModel dx="585" dy="327" grid="1" gridSize="10" guides="1" tooltips="1" connect="1" arrows="1" fold="1" page="1" pageScale="1" pageWidth="827" pageHeight="1169" math="0" shadow="0">
      <root>
        <mxCell id="0" />
        <mxCell id="1" parent="0" />
        <mxCell id="Lb5HWGm_DYKcfEpjaOFK-3" style="rounded=0;orthogonalLoop=1;jettySize=auto;html=1;exitX=1;exitY=0.5;exitDx=0;exitDy=0;entryX=0;entryY=0.5;entryDx=0;entryDy=0;" edge="1" parent="1" source="Lb5HWGm_DYKcfEpjaOFK-1" target="Lb5HWGm_DYKcfEpjaOFK-2">
          <mxGeometry relative="1" as="geometry" />
        </mxCell>
        <mxCell id="Lb5HWGm_DYKcfEpjaOFK-1" value="" style="ellipse;whiteSpace=wrap;html=1;aspect=fixed;fillColor=none;dashed=1;" vertex="1" parent="1">
          <mxGeometry x="311" y="230" width="50" height="50" as="geometry" />
        </mxCell>
        <mxCell id="Lb5HWGm_DYKcfEpjaOFK-5" style="edgeStyle=none;rounded=0;orthogonalLoop=1;jettySize=auto;html=1;exitX=1;exitY=0.5;exitDx=0;exitDy=0;" edge="1" parent="1" source="Lb5HWGm_DYKcfEpjaOFK-2">
          <mxGeometry relative="1" as="geometry">
            <mxPoint x="480" y="255" as="targetPoint" />
          </mxGeometry>
        </mxCell>
        <mxCell id="Lb5HWGm_DYKcfEpjaOFK-2" value="" style="ellipse;whiteSpace=wrap;html=1;aspect=fixed;fillColor=none;" vertex="1" parent="1">
          <mxGeometry x="400" y="230" width="50" height="50" as="geometry" />
        </mxCell>
        <mxCell id="Lb5HWGm_DYKcfEpjaOFK-4" value="" style="ellipse;whiteSpace=wrap;html=1;aspect=fixed;fillColor=none;dashed=1;" vertex="1" parent="1">
          <mxGeometry x="667" y="230" width="50" height="50" as="geometry" />
        </mxCell>
        <mxCell id="Lb5HWGm_DYKcfEpjaOFK-8" value="" style="ellipse;whiteSpace=wrap;html=1;aspect=fixed;fillColor=#000000;" vertex="1" parent="1">
          <mxGeometry x="490" y="250" width="10" height="10" as="geometry" />
        </mxCell>
        <mxCell id="Lb5HWGm_DYKcfEpjaOFK-9" value="" style="ellipse;whiteSpace=wrap;html=1;aspect=fixed;fillColor=#000000;" vertex="1" parent="1">
          <mxGeometry x="508" y="250" width="10" height="10" as="geometry" />
        </mxCell>
        <mxCell id="Lb5HWGm_DYKcfEpjaOFK-10" value="" style="ellipse;whiteSpace=wrap;html=1;aspect=fixed;fillColor=#000000;" vertex="1" parent="1">
          <mxGeometry x="528" y="250" width="10" height="10" as="geometry" />
        </mxCell>
        <mxCell id="Lb5HWGm_DYKcfEpjaOFK-11" value="" style="endArrow=classic;html=1;rounded=0;entryX=0;entryY=0.5;entryDx=0;entryDy=0;" edge="1" parent="1" target="Lb5HWGm_DYKcfEpjaOFK-4">
          <mxGeometry width="50" height="50" relative="1" as="geometry">
            <mxPoint x="630" y="255" as="sourcePoint" />
            <mxPoint x="610" y="250" as="targetPoint" />
          </mxGeometry>
        </mxCell>
        <mxCell id="Lb5HWGm_DYKcfEpjaOFK-12" value="" style="ellipse;whiteSpace=wrap;html=1;aspect=fixed;fillColor=none;" vertex="1" parent="1">
          <mxGeometry x="580" y="230" width="50" height="50" as="geometry" />
        </mxCell>
        <mxCell id="Lb5HWGm_DYKcfEpjaOFK-13" style="edgeStyle=none;rounded=0;orthogonalLoop=1;jettySize=auto;html=1;exitX=1;exitY=0.5;exitDx=0;exitDy=0;" edge="1" parent="1">
          <mxGeometry relative="1" as="geometry">
            <mxPoint x="580" y="255" as="targetPoint" />
            <mxPoint x="550.0000000000011" y="255" as="sourcePoint" />
          </mxGeometry>
        </mxCell>
      </root>
    </mxGraphModel>
  </diagram>
</mxfile>
